<?xml version="1.0" standalone="no"?>
<!DOCTYPE svg PUBLIC "-//W3C//DTD SVG 20010904//EN"
 "http://www.w3.org/TR/2001/REC-SVG-20010904/DTD/svg10.dtd">
<svg version="1.0" xmlns="http://www.w3.org/2000/svg"
 width="293.000000pt" height="311.000000pt" viewBox="0 0 293.000000 311.000000"
 preserveAspectRatio="xMidYMid meet">

<g transform="translate(0.000000,311.000000) scale(0.100000,-0.100000)"
fill="#6a38c2" stroke="none">
<path d="M874 2605 c-14 -21 -15 -31 -6 -51 14 -30 33 -38 67 -30 62 16 49
106 -15 106 -21 0 -35 -8 -46 -25z"/>
<path d="M490 2600 c-26 -26 -26 -81 -2 -103 26 -23 75 -21 97 3 59 65 -33
162 -95 100z"/>
<path d="M1942 2597 c-43 -46 -15 -120 46 -120 43 0 72 28 72 70 0 66 -74 97
-118 50z"/>
<path d="M640 2596 c-6 -8 -10 -25 -8 -38 2 -19 9 -23 38 -23 29 0 36 4 38 23
4 28 -14 52 -38 52 -10 0 -23 -7 -30 -14z"/>
<path d="M1693 2575 c-33 -33 -35 -39 -30 -81 3 -31 13 -55 30 -71 16 -17 40
-27 71 -30 42 -5 48 -3 81 30 29 29 35 42 35 77 0 34 -6 48 -34 76 -28 28 -42
34 -76 34 -35 0 -48 -6 -77 -35z"/>
<path d="M1100 2580 c-11 -11 -20 -29 -20 -40 0 -27 43 -70 70 -70 29 0 60 35
60 68 0 57 -69 83 -110 42z"/>
<path d="M2170 2570 c-11 -11 -20 -33 -20 -50 0 -59 67 -90 118 -54 28 20 31
83 4 107 -25 23 -78 21 -102 -3z"/>
<path d="M2320 2571 c-14 -26 -3 -50 26 -57 42 -11 72 34 42 64 -18 18 -56 14
-68 -7z"/>
<path d="M964 2510 c-50 -20 -71 -101 -39 -146 19 -28 69 -48 101 -40 41 11
74 53 74 95 -1 72 -70 118 -136 91z"/>
<path d="M708 2480 c-27 -28 -30 -36 -25 -73 7 -53 44 -87 93 -87 74 0 119 66
90 133 -27 66 -106 79 -158 27z"/>
<path d="M1934 2436 c-15 -40 21 -80 54 -60 37 24 21 74 -25 74 -13 0 -26 -6
-29 -14z"/>
<path d="M2203 2414 c-89 -45 -55 -184 46 -184 86 1 131 97 74 160 -34 37 -77
46 -120 24z"/>
<path d="M1826 2374 c-9 -8 -16 -22 -16 -29 0 -7 7 -21 16 -29 8 -9 22 -16 29
-16 7 0 21 7 29 16 9 8 16 22 16 29 0 7 -7 21 -16 29 -8 9 -22 16 -29 16 -7 0
-21 -7 -29 -16z"/>
<path d="M546 2365 c-9 -9 -16 -29 -16 -45 0 -41 25 -62 69 -58 77 6 77 110 0
116 -24 2 -42 -3 -53 -13z"/>
<path d="M1682 2368 c-34 -34 6 -90 48 -68 35 19 20 80 -20 80 -9 0 -21 -5
-28 -12z"/>
<path d="M846 2314 c-24 -24 -20 -61 9 -80 23 -15 27 -15 50 0 42 28 24 96
-25 96 -10 0 -26 -7 -34 -16z"/>
<path d="M1102 2314 c-29 -20 -31 -85 -2 -114 46 -46 130 -9 130 58 0 62 -73
94 -128 56z"/>
<path d="M1948 2274 c-29 -15 -58 -61 -58 -91 0 -34 37 -81 73 -92 112 -37
184 118 83 180 -37 23 -61 23 -98 3z"/>
<path d="M1686 2245 c-43 -22 -55 -44 -56 -97 0 -40 4 -50 31 -72 62 -53 157
-23 174 54 10 44 -18 98 -59 115 -44 19 -54 19 -90 0z"/>
<path d="M487 2232 c-24 -27 -21 -59 8 -78 51 -33 104 21 71 71 -20 30 -56 33
-79 7z"/>
<path d="M651 2196 c-29 -16 -50 -52 -51 -88 0 -34 42 -84 77 -91 40 -7 89 16
107 52 20 37 20 45 1 86 -25 51 -83 69 -134 41z"/>
<path d="M918 2194 c-35 -19 -48 -43 -48 -93 0 -57 32 -91 91 -98 38 -4 50 -1
72 18 97 85 -2 235 -115 173z"/>
<path d="M2312 2184 c-26 -18 -29 -56 -6 -78 18 -19 65 -21 82 -4 18 18 14 63
-6 81 -23 21 -41 21 -70 1z"/>
<path d="M2111 2124 c-42 -35 -44 -98 -5 -138 40 -39 103 -37 138 5 36 43 35
91 -3 130 -39 38 -87 39 -130 3z"/>
<path d="M1125 2116 c-21 -15 -25 -67 -5 -90 17 -22 73 -20 93 2 52 57 -25
134 -88 88z"/>
<path d="M480 2060 c-43 -43 -14 -110 48 -110 57 0 82 68 39 108 -29 27 -61
28 -87 2z"/>
<path d="M1970 1983 c-50 -64 29 -143 93 -93 18 15 27 31 27 51 0 65 -80 93
-120 42z"/>
<path d="M840 1981 c-14 -26 -3 -50 26 -57 42 -11 72 34 42 64 -18 18 -56 14
-68 -7z"/>
<path d="M657 1970 c-37 -30 -52 -80 -34 -122 18 -42 37 -58 79 -64 106 -17
168 107 88 179 -38 34 -95 37 -133 7z"/>
<path d="M1004 1980 c-11 -4 -32 -22 -47 -39 -103 -123 41 -290 185 -215 88
46 91 192 5 244 -33 21 -105 26 -143 10z"/>
<path d="M1667 1983 c-11 -11 -8 -48 5 -61 30 -30 75 0 64 43 -5 19 -13 25
-35 25 -15 0 -31 -3 -34 -7z"/>
<path d="M1800 1949 c-60 -24 -82 -75 -55 -132 45 -96 185 -60 185 47 0 31
-46 82 -80 89 -14 3 -36 1 -50 -4z"/>
<path d="M2234 1915 c-15 -23 -15 -27 0 -50 11 -17 26 -25 44 -25 35 0 52 16
52 50 0 34 -17 50 -52 50 -18 0 -33 -8 -44 -25z"/>
<path d="M480 1860 c-40 -40 -11 -110 45 -110 32 0 65 33 65 65 0 14 -9 34
-20 45 -11 11 -31 20 -45 20 -14 0 -34 -9 -45 -20z"/>
<path d="M2050 1840 c-61 -61 27 -154 98 -104 28 20 31 83 4 107 -25 23 -78
21 -102 -3z"/>
<path d="M1313 1798 c-82 -22 -99 -134 -29 -190 27 -22 94 -23 125 -2 31 22
52 75 45 113 -12 58 -79 96 -141 79z"/>
<path d="M2227 1799 c-29 -17 -49 -68 -43 -105 12 -63 99 -97 152 -59 76 52
38 175 -53 175 -21 0 -46 -5 -56 -11z"/>
<path d="M744 1736 c-28 -28 -34 -42 -34 -76 0 -34 6 -48 34 -76 28 -28 42
-34 76 -34 34 0 48 6 76 34 28 28 34 42 34 76 0 34 -6 48 -34 76 -28 28 -42
34 -76 34 -34 0 -48 -6 -76 -34z"/>
<path d="M1912 1753 c-31 -28 -35 -56 -11 -86 40 -51 109 -25 109 41 0 53 -58
79 -98 45z"/>
<path d="M1533 1740 c-55 -22 -74 -111 -33 -155 78 -83 206 6 159 109 -12 25
-64 57 -91 55 -7 0 -23 -4 -35 -9z"/>
<path d="M1727 1732 c-26 -28 -21 -69 9 -89 24 -15 29 -15 53 -2 16 9 27 25
29 43 7 55 -56 87 -91 48z"/>
<path d="M534 1716 c-9 -23 -1 -48 19 -60 25 -16 52 4 52 40 0 25 -4 29 -33
32 -22 2 -34 -2 -38 -12z"/>
<path d="M1126 1628 c-34 -48 -4 -108 53 -108 54 0 87 60 57 105 -22 34 -87
36 -110 3z"/>
<path d="M2059 1621 c-89 -90 33 -227 129 -146 77 65 33 175 -68 175 -21 0
-41 -9 -61 -29z"/>
<path d="M524 1620 c-32 -13 -64 -59 -64 -92 0 -92 100 -141 169 -82 89 75 3
218 -105 174z"/>
<path d="M947 1602 c-32 -35 -16 -95 28 -106 46 -12 93 33 80 74 -16 50 -76
67 -108 32z"/>
<path d="M1844 1602 c-82 -66 -39 -182 67 -182 47 0 89 47 89 100 0 81 -96
131 -156 82z"/>
<path d="M1414 1536 c-15 -40 21 -80 54 -60 37 24 21 74 -25 74 -13 0 -26 -6
-29 -14z"/>
<path d="M1594 1506 c-70 -70 -26 -175 74 -176 59 0 102 43 102 102 0 55 -51
108 -105 108 -29 0 -45 -8 -71 -34z"/>
<path d="M2250 1510 c-41 -41 -8 -120 49 -120 27 0 71 42 71 68 0 59 -79 93
-120 52z"/>
<path d="M1050 1490 c-27 -27 -25 -62 3 -88 27 -26 54 -28 85 -6 26 18 30 74
6 98 -22 22 -70 20 -94 -4z"/>
<path d="M1249 1481 c-68 -68 -8 -184 85 -167 65 12 100 79 71 139 -30 63
-107 77 -156 28z"/>
<path d="M714 1475 c-7 -29 10 -55 36 -55 24 0 42 24 38 52 -2 18 -10 24 -35
26 -28 3 -33 -1 -39 -23z"/>
<path d="M848 1464 c-34 -18 -58 -62 -58 -105 0 -22 10 -41 34 -65 28 -28 42
-34 76 -34 34 0 48 6 76 34 24 24 34 43 34 65 0 47 -27 91 -65 107 -43 18 -63
17 -97 -2z"/>
<path d="M2125 1409 c-52 -30 -68 -84 -41 -138 14 -27 53 -51 82 -51 25 0 73
29 85 51 19 37 13 89 -13 116 -28 27 -84 39 -113 22z"/>
<path d="M552 1368 c-7 -7 -12 -24 -12 -38 0 -33 17 -50 50 -50 33 0 50 17 50
50 0 33 -17 50 -50 50 -14 0 -31 -5 -38 -12z"/>
<path d="M1492 1368 c-7 -7 -12 -20 -12 -29 0 -43 72 -53 78 -11 6 42 -37 69
-66 40z"/>
<path d="M1870 1353 c-50 -64 29 -143 93 -93 18 15 27 31 27 51 0 65 -80 93
-120 42z"/>
<path d="M694 1362 c-19 -13 -23 -39 -8 -61 26 -36 74 -21 74 24 0 36 -37 57
-66 37z"/>
<path d="M1128 1304 c-35 -19 -48 -43 -48 -92 0 -71 64 -115 134 -92 43 14 66
48 66 97 -1 80 -81 126 -152 87z"/>
<path d="M2286 1284 c-22 -21 -20 -50 4 -74 24 -24 38 -25 68 -4 41 29 19 94
-33 94 -13 0 -31 -7 -39 -16z"/>
<path d="M1515 1255 c-73 -72 28 -178 109 -114 20 16 26 29 26 58 0 74 -83
109 -135 56z"/>
<path d="M603 1250 c-85 -52 -44 -190 57 -190 70 0 117 66 98 138 -10 37 -58
72 -98 72 -14 0 -39 -9 -57 -20z"/>
<path d="M1700 1240 c-28 -28 -26 -81 3 -108 49 -46 127 -12 127 54 0 63 -86
98 -130 54z"/>
<path d="M982 1238 c-7 -7 -12 -22 -12 -35 0 -28 36 -46 63 -31 33 17 15 78
-23 78 -9 0 -21 -5 -28 -12z"/>
<path d="M1975 1235 c-39 -20 -56 -48 -57 -94 -1 -91 90 -140 169 -91 87 53
44 201 -59 200 -13 0 -37 -7 -53 -15z"/>
<path d="M1332 1217 c-47 -50 -10 -137 58 -137 69 0 107 91 57 138 -32 30 -87
29 -115 -1z"/>
<path d="M816 1209 c-52 -41 -23 -122 44 -122 64 0 95 79 48 123 -28 26 -58
26 -92 -1z"/>
<path d="M2213 1160 c-40 -24 -53 -48 -53 -100 0 -32 6 -48 29 -70 51 -52 111
-52 162 0 23 23 29 37 29 72 0 52 -21 85 -66 104 -44 19 -63 18 -101 -6z"/>
<path d="M984 1096 c-66 -66 -24 -165 69 -166 104 0 134 141 40 189 -39 20
-73 13 -109 -23z"/>
<path d="M492 1098 c-34 -34 6 -90 48 -68 35 19 20 80 -20 80 -9 0 -21 -5 -28
-12z"/>
<path d="M1755 1067 c-18 -15 -28 -36 -32 -64 -5 -37 -2 -45 25 -73 53 -52
134 -38 162 29 38 93 -79 174 -155 108z"/>
<path d="M561 1012 c-48 -24 -73 -62 -78 -119 -3 -36 1 -56 16 -81 80 -126
271 -78 271 68 0 112 -111 183 -209 132z"/>
<path d="M811 994 c-12 -15 -21 -34 -21 -44 0 -10 9 -29 21 -44 28 -36 80 -36
108 0 27 35 26 59 -4 89 -33 34 -77 33 -104 -1z"/>
<path d="M2049 941 c-66 -66 -18 -181 76 -181 93 0 140 111 76 179 -24 26 -36
31 -76 31 -38 0 -52 -5 -76 -29z"/>
<path d="M2290 920 c-29 -29 -24 -79 11 -99 36 -20 74 -8 89 30 11 27 11 33
-7 57 -26 35 -65 40 -93 12z"/>
<path d="M926 874 c-21 -20 -20 -30 4 -54 11 -11 24 -20 29 -20 14 0 41 30 41
45 0 7 -7 21 -16 29 -8 9 -22 16 -29 16 -7 0 -21 -7 -29 -16z"/>
<path d="M1647 873 c-25 -29 -26 -73 -1 -97 21 -22 77 -20 97 2 22 25 21 75
-1 95 -24 22 -75 22 -95 0z"/>
<path d="M1850 870 c-11 -11 -20 -31 -20 -45 0 -14 9 -34 20 -45 39 -39 110
-11 110 43 0 31 -35 67 -65 67 -14 0 -34 -9 -45 -20z"/>
<path d="M1059 831 c-49 -49 -35 -128 28 -160 98 -50 192 82 114 160 -41 41
-101 41 -142 0z"/>
<path d="M790 782 c-42 -42 -42 -101 -1 -143 64 -64 171 -20 171 70 0 57 -32
91 -92 98 -42 5 -50 3 -78 -25z"/>
<path d="M2212 768 c-28 -28 -3 -72 39 -66 30 4 47 33 33 56 -14 21 -55 27
-72 10z"/>
<path d="M1957 742 c-25 -27 -22 -78 5 -96 46 -33 108 -4 108 49 0 55 -77 87
-113 47z"/>
<path d="M2322 748 c-29 -29 -2 -72 40 -66 17 2 24 11 26 32 5 41 -37 63 -66
34z"/>
<path d="M1734 716 c-27 -27 -34 -42 -34 -74 0 -116 155 -151 204 -47 36 74
-18 155 -102 155 -25 0 -43 -9 -68 -34z"/>
<path d="M2207 650 c-15 -12 -29 -35 -32 -53 -19 -100 100 -163 167 -88 37 41
37 88 2 130 -21 26 -33 31 -69 31 -27 0 -51 -7 -68 -20z"/>
<path d="M986 645 c-9 -9 -16 -29 -16 -45 0 -41 25 -62 69 -58 77 6 77 110 0
116 -24 2 -42 -3 -53 -13z"/>
<path d="M633 620 c-40 -24 -54 -50 -55 -100 -1 -116 131 -171 210 -85 74 80
20 205 -90 205 -18 0 -47 -9 -65 -20z"/>
<path d="M1955 598 c-34 -18 -55 -51 -55 -86 0 -44 14 -68 52 -88 64 -33 138
11 138 83 0 45 -14 69 -50 88 -34 18 -57 19 -85 3z"/>
<path d="M1127 582 c-24 -27 -21 -59 8 -78 23 -15 27 -15 50 0 32 21 33 59 3
80 -29 21 -41 20 -61 -2z"/>
<path d="M890 520 c-43 -43 -11 -120 50 -120 38 0 70 32 70 70 0 38 -32 70
-70 70 -17 0 -39 -9 -50 -20z"/>
<path d="M1656 514 c-33 -32 -8 -84 39 -84 15 0 31 10 41 25 15 23 15 27 0 50
-19 29 -56 33 -80 9z"/>
<path d="M1782 474 c-26 -18 -30 -74 -6 -98 24 -24 80 -20 98 6 22 32 20 55
-9 83 -28 29 -51 31 -83 9z"/>
<path d="M2220 437 c-56 -28 -48 -110 14 -130 74 -25 123 99 51 131 -32 15
-34 15 -65 -1z"/>
<path d="M1070 400 c-32 -32 -24 -75 18 -91 58 -22 101 60 50 95 -30 21 -44
20 -68 -4z"/>
<path d="M2062 404 c-24 -17 -30 -62 -10 -82 7 -7 24 -12 38 -12 33 0 50 17
50 51 0 24 -30 59 -50 59 -3 0 -16 -7 -28 -16z"/>
<path d="M1666 397 c-38 -27 2 -95 42 -71 24 16 28 55 6 71 -10 7 -21 13 -24
13 -3 0 -14 -6 -24 -13z"/>
</g>
</svg>
